<?xml version="1.0" standalone="no"?>
<!DOCTYPE svg PUBLIC "-//W3C//DTD SVG 20010904//EN"
 "http://www.w3.org/TR/2001/REC-SVG-20010904/DTD/svg10.dtd">
<svg version="1.0" xmlns="http://www.w3.org/2000/svg"
 width="512.000000pt" height="512.000000pt" viewBox="0 0 512.000000 512.000000"
 preserveAspectRatio="xMidYMid meet">
<metadata>
Created by potrace 1.11, written by Peter Selinger 2001-2013
</metadata>
<g transform="translate(0.000000,512.000000) scale(0.100000,-0.100000)"
fill="#000000" stroke="none">
<path d="M0 2560 l0 -2560 2560 0 2560 0 0 2560 0 2560 -2560 0 -2560 0 0
-2560z m3952 1545 c238 -43 433 -147 559 -299 94 -114 180 -325 204 -503 l7
-53 -300 0 -300 0 -16 70 c-51 230 -211 345 -454 327 -110 -7 -181 -37 -256
-108 -101 -94 -161 -229 -191 -429 -18 -114 -20 -501 -4 -615 55 -398 241
-572 589 -552 107 6 205 33 268 74 l42 27 0 203 0 203 -215 0 -215 0 0 215 0
215 525 0 525 0 0 -534 0 -533 -49 -46 c-134 -126 -377 -231 -637 -278 -147
-27 -455 -32 -574 -10 -466 84 -763 386 -872 884 -21 94 -23 128 -23 427 0
300 2 333 22 426 88 396 284 667 586 809 85 41 225 81 322 94 95 13 351 5 457
-14z m-1602 -255 l0 -240 -555 0 -555 0 0 -300 0 -300 500 0 500 0 0 -240 0
-240 -500 0 -500 0 0 -515 0 -515 -310 0 -310 0 0 1295 0 1295 865 0 865 0 0
-240z"/>
</g>
</svg>
